<?xml version="1.0" encoding="utf-8"?>
<!-- Generator: Adobe Illustrator 21.1.0, SVG Export Plug-In . SVG Version: 6.00 Build 0)  -->
<svg version="1.1" id="Layer_1" xmlns="http://www.w3.org/2000/svg" xmlns:xlink="http://www.w3.org/1999/xlink" x="0px" y="0px"
	 viewBox="0 0 456 456" style="enable-background:new 0 0 456 456;" xml:space="preserve">
<style type="text/css">
	.st0{fill:#F6F6F6;stroke:#000000;stroke-width:0.75;stroke-miterlimit:10;}
	.st1{fill:#1074B9;}
	.st2{fill:#32398F;}
	.st3{fill:#3659A7;}
	.st4{fill:#F79524;}
	.st5{fill:#128BCA;}
</style>
<rect y="0" class="st0" width="456" height="456"/>
<g>
	<path class="st1" d="M236.4,283.9c-9.5-5.1-19.2-10.2-28.8-15.2c-18.7-9.8-37.3-19.6-55.9-29.9c12.8,0.4,25.6,0.8,38.4,1.3
		c0.4,0,0.8,0.1,1.3,0.1c4.4,3.5,9.4,5.9,14.1,8.7c0.8,0.5,1.8,0.1,2.8-0.6c2.4-1.8,4.9-3.5,7.4-5.3c0.6-0.4,1.4-0.8,1.2-1.5
		c-0.3-0.9-1.3-0.8-2-0.8c-3.1,0-6.3-0.1-9.4-0.1c0-2.1,0-4.3,0.1-6.4c21.8-15.7,43.3-31.4,65.1-47.1c20.4-14.7,40.7-29.5,61.1-44.3
		c0.8-0.5,1.3-1.5,2.7-1.3c0.3,1.1-0.6,1.8-1.1,2.5c-20.6,32-41.2,63.9-61.8,95.9c-0.6,0.9-1.5,1.8-1.6,3.1
		c-1.9,1.6-2.7,3.3-1.3,5.8c1.3,2.3,2.2,4.8,3.2,7.2c0.2,0.4,0.3,0.9,0.6,1.3c2.3,4.2,3.4,9,6.4,12.9c0.9,4.2,3.4,7.8,4.8,11.8
		c5.1,11.2,10.2,22.5,15.4,33.9c-1.3,0.3-2-0.5-2.8-0.9c-14.1-7.4-28.2-14.8-42.3-22.2c-0.6-0.3-1.3-0.4-1.9-0.7
		C246.8,289.1,241.7,286.2,236.4,283.9z M265.7,274.3c-2.4-5.5-5-11-7.4-16.7c-0.8-1.7-1.6-2.3-3.4-2.3c-14.7-0.5-29.5-1.1-44.1-1.6
		c-1.1,0-2.1,0-3.2,0c12.8,7.2,25.6,14,38.4,20.6c2.8,1.4,5.2,3.4,8.5,3.8c4.6,3.3,9.8,5.4,14.8,8c0.4,0.3,1.1,0.8,1.6,0.1
		c0.4-0.5,0-1.1-0.3-1.6C268.8,281.1,267.3,277.7,265.7,274.3z M218.4,240.7c0.4,0.3,0.5,0.5,0.7,0.5c11.2,0.4,22.4,0.8,33.6,1.2
		c1.6,0.1,2.3-0.7,3-1.8c9.9-15.3,19.7-30.6,29.6-46c0.4-0.7,1.3-1.3,0.4-2.7C263.3,208.1,240.9,224.4,218.4,240.7z"/>
	<path class="st2" d="M236.4,283.9c5.4,2.4,10.5,5.2,15.6,8.3c-10.5,3.5-21,6.8-31.3,10.6c-4.8,1.8-9,1.6-13.8,0.3
		c-42.3-12.1-84.8-23.9-127.1-35.6c-3.6-1-7.2-2-10.7-3.5c7.8-0.3,15.6-0.7,23.3-1.1c18.8-1,37.7-2.2,56.5-1.4
		c7.7,0.3,15.2,1.8,23.5,3.5c-9.2,3.1-17.8,5.1-26.6,6.9c0,0.3,0,0.5,0,0.8c5.5,1.6,11,3.2,16.6,4.7c16.6,4.6,33.1,9.2,49.6,13.8
		c0.8,0.3,1.6,0.5,2.5,0.2C221.6,288.7,229,286.3,236.4,283.9z"/>
	<path class="st3" d="M283.4,282c-1.3-4-3.8-7.6-4.8-11.8c12.3-4.1,24.6-8.3,36.9-12.4c-0.1-0.3-0.1-0.6-0.2-0.9
		c-4.5,0-9,0.1-13.5,0c-10-0.3-20.1-1-30.2-0.8c-1-2.4-1.9-4.9-3.2-7.2c-1.4-2.4-0.7-4.2,1.3-5.8c35.3,1.3,70.5,2.6,105.8,3.8
		c3.8,0.2,7.6,0,11.5,0c-0.2,1.3-0.9,1.3-1.5,1.4c-31.6,10.5-63.3,20.8-94.9,31.2C288.2,280.4,285.7,281.2,283.4,282z"/>
	<path class="st3" d="M191.3,240.1c-0.4,0-0.8-0.1-1.3-0.1c-7.4-5-15.2-9.3-22.8-13.9c-11.9-7.2-23.9-14.2-35.8-21.3
		c-0.3-0.2-0.7-0.3-1.8-0.8c4.4,9.4,8.2,18.2,11.2,27.7C128.4,222,99,183,91.1,165.9c6.8,3.9,13.2,7.9,19.7,11.6
		c30.7,18.2,61.3,36.5,92,54.9c0.9,0.5,1.8,1.2,2.6,1.8c0,2.1,0,4.3-0.1,6.4C200.6,240.9,195.9,240.2,191.3,240.1z"/>
	<path class="st4" d="M186.7,215.3c-0.3-4.4,1.2-8.5,2-12.7c3.2-15.9,9.8-30.6,16.4-45.3c2.5-5.6,5-11.3,7.7-17.4
		c2.6,4.9,4.9,9.4,7.3,13.9c7.2,14,14.3,28,21.6,41.8c1.2,2.2,1,3.3-1.2,4.6c-1.8,1-3.6,2.3-5.3,3.7c-1.8,1.5-2.7,1.3-3.8-0.8
		c-4.4-7.9-8.5-15.9-12.6-23.9c-1.5-2.9-3.1-5.9-5-9.6C206.5,186.5,198,201.8,186.7,215.3L186.7,215.3z"/>
	<path class="st4" d="M186.7,215.3L186.7,215.3L186.7,215.3z"/>
	<path class="st5" d="M191.3,240.1c4.7,0.1,9.3,0.9,14,0.5c3.1,0,6.3,0,9.4,0.1c0.8,0,1.8-0.2,2,0.8c0.2,0.8-0.7,1.1-1.2,1.5
		c-2.4,1.8-4.9,3.4-7.4,5.3c-0.8,0.7-1.9,1-2.8,0.6C200.6,246.1,195.6,243.6,191.3,240.1z"/>
	<path class="st3" d="M254.4,278.1c3.8-1.3,7.5-2.6,11.3-3.8c1.6,3.4,3.3,6.9,4.9,10.4c0.3,0.5,0.7,1.1,0.3,1.6
		c-0.5,0.7-1.1,0.1-1.6-0.1C264.2,283.6,259,281.4,254.4,278.1z"/>
</g>
</svg>
