<?xml version="1.0" encoding="utf-8"?>
<!-- Generator: Adobe Illustrator 21.1.0, SVG Export Plug-In . SVG Version: 6.00 Build 0)  -->
<svg version="1.1" id="Layer_1" xmlns:serif="http://www.serif.com/"
	 xmlns="http://www.w3.org/2000/svg" xmlns:xlink="http://www.w3.org/1999/xlink" x="0px" y="0px" viewBox="0 0 456 456"
	 style="enable-background:new 0 0 456 456;" xml:space="preserve">
<style type="text/css">
	.st0{fill:#0F74BA;}
	.st1{fill:#323891;}
	.st2{fill:#3558A7;}
	.st3{fill:#F79524;}
	.st4{fill:#0D8CCC;}
</style>
<path class="st0" d="M251.8,298.2c-11.4-6.1-22.9-12.1-34.4-18.1c-22.3-11.7-44.7-23.3-66.9-35.5c15.3,0.5,30.6,1,45.9,1.5
	c0.5,0,1,0.1,1.5,0.1c5.2,4.2,11.2,7,16.9,10.3c1,0.6,2.2,0.1,3.3-0.7c2.9-2.2,5.9-4.2,8.8-6.3c0.7-0.5,1.7-0.9,1.4-1.8
	c-0.3-1.1-1.5-0.9-2.4-0.9c-3.7,0-7.5-0.1-11.2-0.1c0-2.5,0-5.1,0.1-7.6c26-18.7,51.9-37.3,77.9-56c24.4-17.5,48.7-35.1,73.1-52.6
	c0.9-0.6,1.6-1.8,3.2-1.5c0.3,1.3-0.7,2.1-1.3,3c-24.6,38-49.3,76-73.9,114c-0.7,1.1-1.8,2.1-1.9,3.7c-2.3,1.9-3.2,3.9-1.5,6.9
	c1.5,2.7,2.6,5.7,3.8,8.6c0.2,0.5,0.4,1.1,0.7,1.6c2.7,5,4.1,10.7,7.7,15.3c1.1,5,4.1,9.2,5.7,14c6.1,13.3,12.2,26.7,18.4,40.3
	c-1.6,0.3-2.4-0.6-3.4-1.1c-16.9-8.8-33.7-17.6-50.6-26.4c-0.7-0.4-1.5-0.5-2.3-0.8C264.3,304.3,258.2,301,251.8,298.2z
	 M286.9,286.8c-2.9-6.6-6-13.1-8.8-19.8c-0.9-2-1.9-2.7-4.1-2.8c-17.6-0.6-35.2-1.3-52.8-1.9c-1.3,0-2.5,0-3.8,0
	c15.3,8.6,30.6,16.6,45.9,24.5c3.3,1.7,6.2,4.1,10.1,4.6c5.5,3.9,11.7,6.5,17.7,9.5c0.5,0.3,1.3,0.9,1.9,0.1c0.5-0.6,0-1.3-0.3-1.9
	C290.7,294.9,288.8,290.8,286.9,286.8z M230.3,246.9c0.5,0.4,0.6,0.6,0.8,0.6c13.4,0.5,26.8,0.9,40.2,1.4c1.9,0.1,2.7-0.8,3.6-2.2
	c11.8-18.2,23.6-36.4,35.4-54.7c0.5-0.8,1.6-1.5,0.5-3.2C284,208.2,257.2,227.5,230.3,246.9z"/>
<path class="st1" d="M251.8,298.2c6.4,2.9,12.6,6.2,18.6,9.8c-12.5,4.2-25.1,8.1-37.4,12.6c-5.7,2.1-10.7,1.9-16.5,0.3
	c-50.6-14.3-101.4-28.3-152.1-42.3c-4.3-1.2-8.6-2.4-12.8-4.2c9.3-0.4,18.6-0.8,27.9-1.3c22.5-1.2,45.1-2.6,67.6-1.7
	c9.2,0.4,18.2,2.1,28.1,4.2c-11,3.7-21.3,6.1-31.8,8.2c0,0.3,0,0.6,0,0.9c6.6,1.9,13.2,3.8,19.8,5.6c19.8,5.5,39.6,10.9,59.4,16.4
	c1,0.3,1.9,0.6,3,0.2C234.2,303.9,243,301.1,251.8,298.2z"/>
<path class="st2" d="M308.1,296c-1.6-4.8-4.6-9-5.7-14c14.7-4.9,29.4-9.8,44.1-14.7c-0.1-0.4-0.1-0.7-0.2-1.1
	c-5.4,0-10.7,0.1-16.1,0c-12-0.3-24-1.2-36.1-1c-1.2-2.9-2.3-5.9-3.8-8.6c-1.7-2.9-0.8-5,1.5-6.9c42.2,1.5,84.3,3.1,126.5,4.6
	c4.5,0.2,9.1,0,13.7,0c-0.2,1.5-1.1,1.5-1.8,1.7c-37.8,12.4-75.7,24.7-113.5,37.1C313.8,294,310.9,295,308.1,296z"/>
<path class="st2" d="M197.9,246.2c-0.5,0-1-0.1-1.5-0.1c-8.8-6-18.2-11-27.3-16.5c-14.2-8.6-28.5-16.9-42.8-25.4
	c-0.4-0.2-0.8-0.4-2.1-1c5.3,11.1,9.8,21.6,13.4,32.9C122.7,224.7,87.4,178.3,78,158c8.1,4.7,15.8,9.3,23.5,13.8
	c36.7,21.7,73.4,43.4,110,65.2c1.1,0.6,2.1,1.4,3.1,2.2c0,2.5,0,5.1-0.1,7.6C209,247.2,203.5,246.3,197.9,246.2z"/>
<path class="st3" d="M192.3,216.7c-0.3-5.2,1.4-10.1,2.4-15.1c3.8-18.9,11.7-36.4,19.6-53.8c3-6.7,6-13.4,9.2-20.7
	c3.1,5.8,5.9,11.1,8.7,16.5c8.6,16.6,17.1,33.2,25.8,49.7c1.4,2.6,1.2,4-1.4,5.5c-2.2,1.2-4.3,2.8-6.3,4.4c-2.1,1.8-3.2,1.5-4.6-1
	c-5.3-9.3-10.2-18.9-15.1-28.4c-1.8-3.5-3.7-7-6-11.4C216.1,182.4,205.9,200.6,192.3,216.7L192.3,216.7z"/>
<polygon class="st3" points="192.3,216.7 192.2,216.7 192.3,216.7 "/>
<path class="st4" d="M197.9,246.2c5.6,0.1,11.1,1.1,16.7,0.6c3.7,0,7.5,0,11.2,0.1c0.9,0,2.1-0.2,2.4,0.9c0.2,0.9-0.8,1.3-1.4,1.8
	c-2.9,2.1-5.9,4.1-8.8,6.3c-1,0.8-2.3,1.2-3.3,0.7C209,253.2,203.1,250.3,197.9,246.2z"/>
<path class="st2" d="M273.4,291.3c4.5-1.5,9-3.1,13.5-4.6c1.9,4.1,3.9,8.2,5.8,12.3c0.3,0.6,0.8,1.3,0.3,1.9
	c-0.6,0.8-1.3,0.1-1.9-0.1C285,297.9,278.9,295.2,273.4,291.3z"/>
</svg>
